<svg width="54" height="54" viewBox="0 0 54 54" fill="none" xmlns="http://www.w3.org/2000/svg">
<g filter="url(#filter0_d_596_887)">
<g clip-path="url(#clip0_596_887)">
<rect x="1" y="1" width="52" height="52" rx="16" fill="white" fill-opacity="0.07" shape-rendering="crispEdges"/>
<path d="M14.5305 25.6332C14.5675 23.9012 14.598 22.4702 14.7996 21.3105L17.4571 22.6781C17.3381 22.6361 17.2467 22.6326 17.1642 22.6781C16.9907 22.7737 16.9793 23.0134 16.9564 23.4926C16.9256 24.1385 16.9089 24.8873 16.89 25.7726C16.8655 26.9184 16.8655 27.5111 16.89 28.657C16.9294 30.5006 16.9592 31.7521 17.1267 32.7153C17.2844 33.6222 17.5475 34.1612 17.9976 34.6124C18.443 35.0589 18.9892 35.3265 19.9267 35.4896C20.9173 35.6619 22.2093 35.6973 24.1037 35.7449C26.3755 35.8019 28.0532 35.8019 30.325 35.7448C32.2193 35.6973 33.5114 35.6619 34.502 35.4896C35.4394 35.3265 35.9856 35.0589 36.4311 34.6124C36.8811 34.1612 37.1443 33.6222 37.302 32.7153C37.4694 31.7521 37.4993 30.5005 37.5387 28.6568C37.5631 27.5111 37.5631 26.9184 37.5387 25.7726C37.5198 24.8872 37.503 24.1383 37.4723 23.4923C37.4493 23.0131 37.4379 22.7735 37.2644 22.6778C37.1818 22.6323 37.0902 22.6358 36.9708 22.6781L39.629 21.3105C39.8306 22.4702 39.8612 23.9012 39.8981 25.6332L39.8999 25.7223C39.9251 26.9016 39.9251 27.5278 39.8999 28.7072L39.8981 28.7963C39.8612 30.5282 39.8307 31.9593 39.629 33.1189C39.4142 34.3545 38.9901 35.3892 38.1043 36.2772C37.2139 37.1698 36.1627 37.5952 34.9072 37.8136C33.7242 38.0193 32.2565 38.0561 30.4727 38.1009L30.3843 38.103C28.0729 38.161 26.3557 38.161 24.0443 38.1031L23.9559 38.1009C22.1721 38.0561 20.7044 38.0193 19.5215 37.8136C18.2659 37.5952 17.2147 37.1698 16.3243 36.2772C15.4386 35.3892 15.0145 34.3546 14.7996 33.1189C14.598 31.9593 14.5675 30.5282 14.5306 28.7963L14.5287 28.7072C14.5035 27.5278 14.5035 26.9016 14.5286 25.7223L14.5305 25.6332Z" fill="#F9A876"/>
<path opacity="0.4" d="M24.0455 16.3267C26.3568 16.2687 28.0741 16.2687 30.3854 16.3267L30.4739 16.3289C32.2577 16.3736 33.7254 16.4104 34.9084 16.6162C35.346 16.6923 35.7587 16.7936 36.1486 16.931C36.2521 16.9553 36.3516 16.9935 36.4443 17.0442C37.054 17.2968 37.6052 17.6509 38.1055 18.1525C38.9912 19.0405 39.4153 20.0752 39.6302 21.3108L36.9719 22.6784C36.8406 22.7249 36.6757 22.8184 36.4521 22.9451L31.4461 25.7815C29.9102 26.6518 28.6112 27.215 27.2152 27.215C25.8192 27.215 24.5203 26.6518 22.9844 25.7815L17.9789 22.9453C17.7549 22.8184 17.5897 22.7248 17.4582 22.6784L14.8008 21.3108C15.0156 20.0752 15.4397 19.0405 16.3254 18.1525C17.2158 17.2599 18.2671 16.8346 19.5226 16.6162C20.7056 16.4104 22.1732 16.3736 23.957 16.3289L24.0455 16.3267Z" fill="#F9A876"/>
<g filter="url(#filter1_f_596_887)">
<circle cx="26.5" cy="29.5" r="6.5" fill="#F9A876"/>
</g>
</g>
</g>
<defs>
<filter id="filter0_d_596_887" x="0" y="0" width="54" height="54" filterUnits="userSpaceOnUse" color-interpolation-filters="sRGB">
<feFlood flood-opacity="0" result="BackgroundImageFix"/>
<feColorMatrix in="SourceAlpha" type="matrix" values="0 0 0 0 0 0 0 0 0 0 0 0 0 0 0 0 0 0 127 0" result="hardAlpha"/>
<feMorphology radius="1" operator="dilate" in="SourceAlpha" result="effect1_dropShadow_596_887"/>
<feOffset/>
<feComposite in2="hardAlpha" operator="out"/>
<feColorMatrix type="matrix" values="0 0 0 0 0.176471 0 0 0 0 0.180392 0 0 0 0 0.282353 0 0 0 1 0"/>
<feBlend mode="normal" in2="BackgroundImageFix" result="effect1_dropShadow_596_887"/>
<feBlend mode="normal" in="SourceGraphic" in2="effect1_dropShadow_596_887" result="shape"/>
</filter>
<filter id="filter1_f_596_887" x="2.4" y="5.4" width="48.2" height="48.2" filterUnits="userSpaceOnUse" color-interpolation-filters="sRGB">
<feFlood flood-opacity="0" result="BackgroundImageFix"/>
<feBlend mode="normal" in="SourceGraphic" in2="BackgroundImageFix" result="shape"/>
<feGaussianBlur stdDeviation="8.8" result="effect1_foregroundBlur_596_887"/>
</filter>
<clipPath id="clip0_596_887">
<rect x="1" y="1" width="52" height="52" rx="16" fill="white"/>
</clipPath>
</defs>
</svg>
