<svg width="54" height="54" viewBox="0 0 54 54" fill="none" xmlns="http://www.w3.org/2000/svg">
<g filter="url(#filter0_d_596_896)">
<rect x="1" y="1" width="52" height="52" rx="16" fill="white" fill-opacity="0.07" shape-rendering="crispEdges"/>
<path fill-rule="evenodd" clip-rule="evenodd" d="M22.4549 26.5875C22.8011 26.2413 23.3623 26.2413 23.7084 26.5875L24.2635 27.1425L24.8186 26.5875C25.1647 26.2413 25.7259 26.2413 26.0721 26.5875C26.4182 26.9337 26.4182 27.4948 26.0721 27.8409L25.517 28.396L26.0721 28.9511C26.4182 29.2973 26.4182 29.8584 26.0721 30.2046C25.7259 30.5507 25.1647 30.5507 24.8186 30.2046L24.2635 29.6496L23.7084 30.2046C23.3623 30.5507 22.8011 30.5507 22.4549 30.2046C22.1088 29.8584 22.1088 29.2973 22.4549 28.9511L23.01 28.396L22.4549 27.8409C22.1088 27.4948 22.1088 26.9337 22.4549 26.5875Z" fill="#78B8FA"/>
<path fill-rule="evenodd" clip-rule="evenodd" d="M16.5448 26.5875C16.8909 26.2413 17.4521 26.2413 17.7983 26.5875L18.3533 27.1425L18.9084 26.5875C19.2546 26.2413 19.8158 26.2413 20.1619 26.5875C20.5081 26.9337 20.5081 27.4948 20.1619 27.8409L19.6068 28.396L20.1619 28.9511C20.5081 29.2973 20.5081 29.8584 20.1619 30.2046C19.8158 30.5507 19.2546 30.5507 18.9084 30.2046L18.3533 29.6496L17.7983 30.2046C17.4521 30.5507 16.8909 30.5507 16.5448 30.2046C16.1986 29.8584 16.1986 29.2973 16.5448 28.9511L17.0998 28.396L16.5448 27.8409C16.1986 27.4948 16.1986 26.9337 16.5448 26.5875Z" fill="#78B8FA"/>
<path fill-rule="evenodd" clip-rule="evenodd" d="M28.3631 26.5875C28.7093 26.2413 29.2705 26.2413 29.6167 26.5875L30.1718 27.1425L30.7268 26.5875C31.0729 26.2413 31.6342 26.2413 31.9803 26.5875C32.3265 26.9337 32.3265 27.4948 31.9803 27.8409L31.4252 28.396L31.9803 28.9511C32.3265 29.2973 32.3265 29.8584 31.9803 30.2046C31.6342 30.5507 31.0729 30.5507 30.7268 30.2046L30.1718 29.6496L29.6167 30.2046C29.2705 30.5507 28.7093 30.5507 28.3631 30.2046C28.017 29.8584 28.017 29.2973 28.3631 28.9511L28.9182 28.396L28.3631 27.8409C28.017 27.4948 28.017 26.9337 28.3631 26.5875Z" fill="#78B8FA"/>
<path fill-rule="evenodd" clip-rule="evenodd" d="M34.2733 26.5875C34.6194 26.2413 35.1807 26.2413 35.5268 26.5875L36.0819 27.1425L36.6369 26.5875C36.9831 26.2413 37.5443 26.2413 37.8905 26.5875C38.2366 26.9337 38.2366 27.4948 37.8905 27.8409L37.3354 28.396L37.8905 28.9511C38.2366 29.2973 38.2366 29.8584 37.8905 30.2046C37.5443 30.5507 36.9831 30.5507 36.6369 30.2046L36.0819 29.6496L35.5268 30.2046C35.1807 30.5507 34.6194 30.5507 34.2733 30.2046C33.9271 29.8584 33.9271 29.2973 34.2733 28.9511L34.8284 28.396L34.2733 27.8409C33.9271 27.4948 33.9271 26.9337 34.2733 26.5875Z" fill="#78B8FA"/>
<g filter="url(#filter1_f_596_896)">
<circle cx="28.5" cy="28.4998" r="6.5" fill="#78B9F9"/>
</g>
<g opacity="0.4">
<path d="M22.2024 15.9106C23.6113 15.1807 25.2266 14.5095 27.2136 14.5095C29.2006 14.5095 30.8166 15.1807 32.2262 15.9106C32.652 16.1311 33.0477 16.3492 33.4258 16.5577C34.3512 17.0679 35.1715 17.5201 36.072 17.8073C36.6007 17.9759 37.0688 18.1252 37.4009 18.2552C37.7134 18.3777 38.0847 18.5454 38.3482 18.8383C38.5851 19.1013 38.7067 19.3967 38.7873 19.6792C38.8605 19.9356 38.9231 20.2829 38.9831 20.616C39.1985 21.8103 39.3131 22.9954 39.3267 24.1576C39.3304 24.4791 39.3323 24.6398 39.2282 24.7451C39.1241 24.8504 38.9593 24.8504 38.6299 24.8504H15.8015C15.4721 24.8504 15.3073 24.8504 15.2032 24.7451C15.0991 24.6398 15.101 24.4791 15.1047 24.1577C15.1182 22.9955 15.2326 21.8104 15.4479 20.616C15.5079 20.283 15.5705 19.9358 15.6437 19.6794C15.7243 19.3969 15.8459 19.1016 16.0826 18.8385C16.3461 18.5457 16.7175 18.3779 17.03 18.2554C17.362 18.1253 17.8303 17.9759 18.3589 17.8073C19.2589 17.5201 20.0785 17.068 21.0032 16.5579C21.3811 16.3494 21.7767 16.1312 22.2024 15.9106Z" fill="#78B8FA"/>
<path d="M29.439 39.4078C28.671 39.7018 28.1056 39.9184 27.218 39.9184C26.3303 39.9184 25.7648 39.7018 24.9969 39.4078C21.4948 38.067 18.9198 35.7825 17.2762 32.9391C17.0283 32.5102 16.9044 32.2958 17.0067 32.1186C17.109 31.9412 17.3652 31.9412 17.8775 31.9412H36.5567C37.0689 31.9412 37.3249 31.9412 37.4272 32.1184C37.5296 32.2958 37.4057 32.5102 37.158 32.939C35.5152 35.7824 32.9408 38.0669 29.439 39.4078Z" fill="#78B8FA"/>
</g>
</g>
<defs>
<filter id="filter0_d_596_896" x="0" y="0" width="54" height="54" filterUnits="userSpaceOnUse" color-interpolation-filters="sRGB">
<feFlood flood-opacity="0" result="BackgroundImageFix"/>
<feColorMatrix in="SourceAlpha" type="matrix" values="0 0 0 0 0 0 0 0 0 0 0 0 0 0 0 0 0 0 127 0" result="hardAlpha"/>
<feMorphology radius="1" operator="dilate" in="SourceAlpha" result="effect1_dropShadow_596_896"/>
<feOffset/>
<feComposite in2="hardAlpha" operator="out"/>
<feColorMatrix type="matrix" values="0 0 0 0 0.176471 0 0 0 0 0.180392 0 0 0 0 0.282353 0 0 0 1 0"/>
<feBlend mode="normal" in2="BackgroundImageFix" result="effect1_dropShadow_596_896"/>
<feBlend mode="normal" in="SourceGraphic" in2="effect1_dropShadow_596_896" result="shape"/>
</filter>
<filter id="filter1_f_596_896" x="4.4" y="4.39976" width="48.2" height="48.2" filterUnits="userSpaceOnUse" color-interpolation-filters="sRGB">
<feFlood flood-opacity="0" result="BackgroundImageFix"/>
<feBlend mode="normal" in="SourceGraphic" in2="BackgroundImageFix" result="shape"/>
<feGaussianBlur stdDeviation="8.8" result="effect1_foregroundBlur_596_896"/>
</filter>
</defs>
</svg>
