<svg width="489" height="360" viewBox="0 0 489 360" fill="none" xmlns="http://www.w3.org/2000/svg">
<rect x="93.6254" y="0.749165" width="394.97" height="276.803" rx="11.5953" fill="url(#paint0_linear_596_817)" fill-opacity="0.16"/>
<rect x="93.6254" y="0.749165" width="394.97" height="276.803" rx="11.5953" stroke="url(#paint1_linear_596_817)" stroke-width="0.809365"/>
<rect x="51.5385" y="42.8361" width="394.97" height="276.803" rx="11.5953" fill="url(#paint2_linear_596_817)" fill-opacity="0.16"/>
<rect x="51.5385" y="42.8361" width="394.97" height="276.803" rx="11.5953" stroke="url(#paint3_linear_596_817)" stroke-width="0.809365"/>
<rect x="62.4658" y="151.695" width="225.813" height="18.6154" rx="9.30769" fill="#CAD1E9"/>
<rect x="77.8447" y="67.5212" width="210.435" height="18.6154" rx="9.30769" fill="#CAD1E9"/>
<rect opacity="0.4" x="77.8447" y="181.64" width="280.849" height="18.6154" rx="9.30769" fill="#CAD1E9"/>
<rect opacity="0.4" x="54.3721" y="211.588" width="304.321" height="18.6154" rx="9.30769" fill="#CAD1E9"/>
<path fill-rule="evenodd" clip-rule="evenodd" d="M101.441 298.291C101.888 298.291 102.251 298.653 102.251 299.1V300.314C102.251 300.761 101.888 301.124 101.441 301.124C100.994 301.124 100.632 300.761 100.632 300.314V299.1C100.632 298.653 100.994 298.291 101.441 298.291ZM96.7982 300.147C97.1142 299.83 97.6267 299.83 97.9428 300.147L98.7522 300.956C99.0682 301.272 99.0682 301.784 98.7522 302.101C98.4361 302.417 97.9236 302.417 97.6075 302.101L96.7982 301.291C96.4821 300.975 96.4821 300.463 96.7982 300.147ZM106.036 300.147C106.352 300.463 106.352 300.975 106.036 301.291L105.227 302.101C104.911 302.417 104.399 302.417 104.082 302.101C103.766 301.784 103.766 301.272 104.082 300.956L104.892 300.147C105.208 299.83 105.72 299.83 106.036 300.147ZM94.9424 304.79C94.9424 304.343 95.3048 303.98 95.7517 303.98H96.9658C97.4128 303.98 97.7752 304.343 97.7752 304.79C97.7752 305.237 97.4128 305.599 96.9658 305.599H95.7517C95.3048 305.599 94.9424 305.237 94.9424 304.79ZM98.7522 307.431C99.0682 307.747 99.0682 308.259 98.7522 308.575L97.9428 309.385C97.6267 309.701 97.1142 309.701 96.7982 309.385C96.4821 309.069 96.4821 308.556 96.7982 308.24L97.6075 307.431C97.9236 307.115 98.4361 307.115 98.7522 307.431Z" fill="#CAD1E9"/>
<path d="M112.313 306.938C112.421 307.079 112.548 307.297 112.546 307.569C112.542 308.229 112.092 308.68 111.655 308.966C111.206 309.259 110.63 309.476 110.069 309.643C109.501 309.813 108.905 309.944 108.396 310.049C108.042 310.121 107.413 310.25 107.232 310.301C106.935 310.384 106.875 310.438 106.855 310.459C106.833 310.483 106.78 310.555 106.711 310.872L106.708 310.885C106.382 312.369 106.125 313.535 105.851 314.33C105.714 314.727 105.555 315.086 105.346 315.357C105.126 315.643 104.812 315.875 104.391 315.894C104.114 315.906 103.891 315.779 103.75 315.675C103.6 315.563 103.464 315.418 103.342 315.265C103.096 314.959 102.842 314.54 102.594 314.064C102.093 313.107 101.564 311.827 101.118 310.514C100.672 309.201 100.298 307.828 100.118 306.683C100.028 306.112 99.9826 305.575 100.008 305.119C100.032 304.695 100.122 304.207 100.433 303.873C100.753 303.528 101.241 303.411 101.668 303.37C102.124 303.326 102.662 303.356 103.234 303.431C104.382 303.581 105.762 303.928 107.085 304.354C108.408 304.78 109.7 305.293 110.672 305.787C111.155 306.032 111.58 306.284 111.894 306.53C112.05 306.652 112.198 306.788 112.313 306.938Z" fill="#CAD1E9"/>
<rect x="25.2339" y="265.007" width="72.8428" height="34.8027" rx="12" fill="#ED5959"/>
<rect x="25.6386" y="265.411" width="72.0334" height="33.9933" rx="11.5953" stroke="white" stroke-opacity="0.17" stroke-width="0.809365"/>
<path d="M46.2389 287.408H43.19V277.99H46.3355C47.2583 277.99 48.0508 278.178 48.713 278.556C49.3752 278.93 49.8826 279.468 50.2351 280.17C50.5908 280.869 50.7686 281.707 50.7686 282.685C50.7686 283.666 50.5892 284.509 50.2305 285.214C49.8749 285.92 49.3598 286.462 48.6854 286.842C48.0109 287.219 47.1954 287.408 46.2389 287.408ZM44.611 286.166H46.1607C46.8781 286.166 47.4744 286.031 47.9496 285.762C48.4248 285.489 48.7804 285.095 49.0165 284.58C49.2525 284.062 49.3706 283.43 49.3706 282.685C49.3706 281.946 49.2525 281.319 49.0165 280.804C48.7835 280.289 48.4355 279.898 47.9726 279.632C47.5096 279.365 46.9348 279.232 46.2481 279.232H44.611V286.166ZM55.0649 287.551C54.3689 287.551 53.7696 287.402 53.2668 287.104C52.7671 286.804 52.3808 286.382 52.1079 285.84C51.8381 285.294 51.7032 284.655 51.7032 283.922C51.7032 283.199 51.8381 282.561 52.1079 282.009C52.3808 281.457 52.7609 281.027 53.2484 280.717C53.7389 280.407 54.3122 280.252 54.9683 280.252C55.3668 280.252 55.7531 280.318 56.1272 280.45C56.5012 280.582 56.8369 280.789 57.1343 281.071C57.4316 281.353 57.6662 281.719 57.8379 282.17C58.0095 282.618 58.0954 283.162 58.0954 283.803V284.29H52.4804V283.26H56.748C56.748 282.898 56.6744 282.578 56.5272 282.299C56.3801 282.017 56.1731 281.795 55.9064 281.632C55.6428 281.47 55.3331 281.388 54.9775 281.388C54.5912 281.388 54.254 281.483 53.9658 281.673C53.6807 281.86 53.4599 282.106 53.3036 282.409C53.1503 282.71 53.0736 283.036 53.0736 283.389V284.193C53.0736 284.666 53.1564 285.067 53.322 285.398C53.4906 285.729 53.7251 285.982 54.0256 286.157C54.326 286.329 54.677 286.415 55.0787 286.415C55.3393 286.415 55.5769 286.378 55.7915 286.304C56.0061 286.228 56.1915 286.114 56.3479 285.964C56.5042 285.814 56.6238 285.628 56.7066 285.408L58.008 285.642C57.9038 286.025 57.7168 286.361 57.447 286.649C57.1803 286.934 56.8446 287.157 56.4399 287.316C56.0383 287.472 55.5799 287.551 55.0649 287.551ZM60.5913 277.99V287.408H59.2163V277.99H60.5913ZM65.0808 287.551C64.3848 287.551 63.7855 287.402 63.2827 287.104C62.783 286.804 62.3967 286.382 62.1238 285.84C61.854 285.294 61.7191 284.655 61.7191 283.922C61.7191 283.199 61.854 282.561 62.1238 282.009C62.3967 281.457 62.7768 281.027 63.2643 280.717C63.7548 280.407 64.3281 280.252 64.9842 280.252C65.3827 280.252 65.769 280.318 66.143 280.45C66.5171 280.582 66.8528 280.789 67.1502 281.071C67.4475 281.353 67.6821 281.719 67.8537 282.17C68.0254 282.618 68.1113 283.162 68.1113 283.803V284.29H62.4963V283.26H66.7639C66.7639 282.898 66.6903 282.578 66.5431 282.299C66.396 282.017 66.189 281.795 65.9223 281.632C65.6587 281.47 65.349 281.388 64.9934 281.388C64.6071 281.388 64.2699 281.483 63.9817 281.673C63.6966 281.86 63.4758 282.106 63.3195 282.409C63.1662 282.71 63.0895 283.036 63.0895 283.389V284.193C63.0895 284.666 63.1723 285.067 63.3379 285.398C63.5065 285.729 63.741 285.982 64.0415 286.157C64.3419 286.329 64.6929 286.415 65.0945 286.415C65.3551 286.415 65.5927 286.378 65.8073 286.304C66.0219 286.228 66.2074 286.114 66.3638 285.964C66.5201 285.814 66.6397 285.628 66.7225 285.408L68.0239 285.642C67.9197 286.025 67.7326 286.361 67.4629 286.649C67.1961 286.934 66.8604 287.157 66.4558 287.316C66.0541 287.472 65.5958 287.551 65.0808 287.551ZM72.5294 280.344V281.448H68.6712V280.344H72.5294ZM69.7059 278.652H71.0809V285.334C71.0809 285.601 71.1207 285.801 71.2004 285.936C71.2801 286.068 71.3828 286.159 71.5085 286.208C71.6373 286.254 71.7768 286.277 71.927 286.277C72.0374 286.277 72.134 286.269 72.2167 286.254C72.2995 286.238 72.3639 286.226 72.4099 286.217L72.6582 287.353C72.5785 287.383 72.4651 287.414 72.3179 287.445C72.1707 287.478 71.9868 287.497 71.7661 287.5C71.4043 287.506 71.0671 287.442 70.7544 287.307C70.4416 287.172 70.1887 286.963 69.9956 286.681C69.8024 286.399 69.7059 286.045 69.7059 285.619V278.652ZM76.6142 287.551C75.9183 287.551 75.3189 287.402 74.8161 287.104C74.3164 286.804 73.9301 286.382 73.6573 285.84C73.3875 285.294 73.2526 284.655 73.2526 283.922C73.2526 283.199 73.3875 282.561 73.6573 282.009C73.9301 281.457 74.3103 281.027 74.7977 280.717C75.2883 280.407 75.8616 280.252 76.5176 280.252C76.9162 280.252 77.3025 280.318 77.6765 280.45C78.0505 280.582 78.3862 280.789 78.6836 281.071C78.981 281.353 79.2155 281.719 79.3872 282.17C79.5589 282.618 79.6447 283.162 79.6447 283.803V284.29H74.0298V283.26H78.2973C78.2973 282.898 78.2237 282.578 78.0766 282.299C77.9294 282.017 77.7225 281.795 77.4558 281.632C77.1921 281.47 76.8825 281.388 76.5268 281.388C76.1405 281.388 75.8033 281.483 75.5151 281.673C75.23 281.86 75.0093 282.106 74.8529 282.409C74.6996 282.71 74.623 283.036 74.623 283.389V284.193C74.623 284.666 74.7058 285.067 74.8713 285.398C75.0399 285.729 75.2745 285.982 75.5749 286.157C75.8753 286.329 76.2264 286.415 76.628 286.415C76.8886 286.415 77.1262 286.378 77.3408 286.304C77.5554 286.228 77.7409 286.114 77.8972 285.964C78.0536 285.814 78.1731 285.628 78.2559 285.408L79.5573 285.642C79.4531 286.025 79.2661 286.361 78.9963 286.649C78.7296 286.934 78.3939 287.157 77.9892 287.316C77.5876 287.472 77.1292 287.551 76.6142 287.551Z" fill="white"/>
<g filter="url(#filter2_d_596_817)">
<rect x="5" y="141.983" width="97.9331" height="97.9331" rx="12" fill="#0B1023"/>
<path opacity="0.4" fill-rule="evenodd" clip-rule="evenodd" d="M39.3477 180.783C39.3477 178.324 41.3407 176.331 43.7992 176.331C46.2577 176.331 48.2507 178.324 48.2507 180.783C48.2507 183.241 46.2577 185.234 43.7992 185.234C41.3407 185.234 39.3477 183.241 39.3477 180.783Z" fill="#3569CF"/>
<path opacity="0.4" d="M76.7188 192.919C72.385 190.124 68.2563 188.953 64.3047 189.118C60.3713 189.282 56.8346 190.761 53.6531 192.888C48.2702 196.487 43.5358 202.23 39.2968 207.371C38.6257 208.185 37.967 208.984 37.3202 209.757L35.4531 211.389L38.1752 213.242C40.0987 214.039 42.3484 214.388 44.9337 214.558C47.509 214.727 50.6109 214.727 54.2997 214.727H54.5392C59.3824 214.727 63.2434 214.727 66.2707 214.32C69.3965 213.9 71.9646 213.009 73.9954 210.978C75.7749 209.199 76.6845 207.016 77.1642 204.385C77.6314 201.822 77.7188 198.661 77.7382 194.801L77.7444 193.58L76.7188 192.919Z" fill="#3569CF"/>
<path fill-rule="evenodd" clip-rule="evenodd" d="M54.2046 167.984H54.5362C59.3792 167.984 63.2405 167.984 66.2677 168.391C69.3936 168.811 71.9616 169.701 73.9924 171.732C76.0232 173.763 76.9137 176.331 77.3339 179.457C77.7408 182.484 77.7408 186.345 77.7408 191.188V191.52C77.7408 196.363 77.7408 200.224 77.3339 203.251C76.9137 206.377 76.0232 208.945 73.9924 210.976C71.9616 213.007 69.3936 213.897 66.2677 214.318C63.2402 214.724 59.3792 214.724 54.536 214.724H54.2048C49.3615 214.724 45.5004 214.724 42.4731 214.318C39.3473 213.897 36.7792 213.007 34.7485 210.976C32.7177 208.945 31.8272 206.377 31.4069 203.251C30.9999 200.224 31 196.363 31 191.52V191.188C31 186.345 30.9999 182.484 31.4069 179.457C31.8272 176.331 32.7177 173.763 34.7485 171.732C36.7792 169.701 39.3473 168.811 42.4731 168.391C45.5004 167.984 49.3615 167.984 54.2046 167.984ZM43.0663 172.802C40.4341 173.156 38.962 173.814 37.8962 174.88C36.8304 175.946 36.1726 177.418 35.8187 180.05C35.4562 182.746 35.4515 186.307 35.4515 191.354C35.4515 196.401 35.4562 199.962 35.8187 202.658C36.1726 205.29 36.8304 206.762 37.8962 207.828C38.962 208.894 40.4341 209.552 43.0663 209.906C45.7625 210.268 49.3236 210.273 54.3704 210.273C59.4171 210.273 62.9783 210.268 65.6746 209.906C68.3067 209.552 69.7788 208.894 70.8448 207.828C71.9104 206.762 72.5682 205.29 72.922 202.658C73.2846 199.962 73.2893 196.401 73.2893 191.354C73.2893 186.307 73.2846 182.746 72.922 180.05C72.5682 177.418 71.9104 175.946 70.8448 174.88C69.7788 173.814 68.3067 173.156 65.6746 172.802C62.9783 172.44 59.4171 172.435 54.3704 172.435C49.3236 172.435 45.7625 172.44 43.0663 172.802Z" fill="#3569CF"/>
</g>
<g filter="url(#filter3_d_596_817)">
<rect x="371.642" y="257.722" width="97.9331" height="97.9331" rx="12" fill="#0B1023"/>
<path opacity="0.4" d="M412.26 299.953C415.054 299.825 417.891 299.758 421.013 299.758C424.134 299.758 426.971 299.825 429.765 299.953C433.791 300.138 437.059 303.255 437.59 307.2C437.88 309.353 438.127 311.614 438.127 313.938C438.127 316.262 437.88 318.524 437.59 320.676C437.059 324.621 433.791 327.739 429.765 327.924C426.971 328.052 424.134 328.119 421.013 328.119C417.891 328.119 415.054 328.052 412.26 327.924C408.235 327.739 404.966 324.621 404.435 320.676C404.145 318.524 403.898 316.262 403.898 313.938C403.898 311.614 404.145 309.353 404.435 307.2C404.966 303.255 408.235 300.138 412.26 299.953Z" fill="#236936"/>
<path fill-rule="evenodd" clip-rule="evenodd" d="M417.402 307.582C416.201 307.582 415.044 308.317 414.651 309.534L411.794 318.378C411.545 319.149 411.968 319.975 412.739 320.225C413.509 320.474 414.336 320.05 414.585 319.28L415.205 317.362H419.6L420.219 319.28C420.468 320.05 421.295 320.474 422.066 320.225C422.837 319.975 423.26 319.149 423.011 318.378L420.154 309.534C419.761 308.317 418.603 307.582 417.402 307.582ZM416.154 314.427L417.403 310.56L418.652 314.427H416.154Z" fill="#236936"/>
<path d="M428.348 309.049C428.348 308.239 427.691 307.582 426.881 307.582C426.07 307.582 425.414 308.239 425.414 309.049V318.829C425.414 319.639 426.07 320.296 426.881 320.296C427.691 320.296 428.348 319.639 428.348 318.829V309.049Z" fill="#236936"/>
<path d="M414.167 296.824C414.167 293.043 417.232 289.978 421.013 289.978C424.794 289.978 427.859 293.043 427.859 296.824V299.876C428.499 299.898 429.133 299.924 429.766 299.953C430.46 299.985 431.132 300.104 431.771 300.3V296.824C431.771 290.883 426.955 286.066 421.013 286.066C415.072 286.066 410.255 290.883 410.255 296.824V300.3C410.895 300.104 411.566 299.985 412.261 299.953C412.893 299.924 413.528 299.898 414.167 299.876V296.824Z" fill="#236936"/>
</g>
<defs>
<filter id="filter2_d_596_817" x="0.953177" y="137.937" width="106.027" height="106.027" filterUnits="userSpaceOnUse" color-interpolation-filters="sRGB">
<feFlood flood-opacity="0" result="BackgroundImageFix"/>
<feColorMatrix in="SourceAlpha" type="matrix" values="0 0 0 0 0 0 0 0 0 0 0 0 0 0 0 0 0 0 127 0" result="hardAlpha"/>
<feMorphology radius="4.04682" operator="dilate" in="SourceAlpha" result="effect1_dropShadow_596_817"/>
<feOffset/>
<feComposite in2="hardAlpha" operator="out"/>
<feColorMatrix type="matrix" values="0 0 0 0 1 0 0 0 0 1 0 0 0 0 1 0 0 0 0.11 0"/>
<feBlend mode="normal" in2="BackgroundImageFix" result="effect1_dropShadow_596_817"/>
<feBlend mode="normal" in="SourceGraphic" in2="effect1_dropShadow_596_817" result="shape"/>
</filter>
<filter id="filter3_d_596_817" x="367.595" y="253.676" width="106.027" height="106.027" filterUnits="userSpaceOnUse" color-interpolation-filters="sRGB">
<feFlood flood-opacity="0" result="BackgroundImageFix"/>
<feColorMatrix in="SourceAlpha" type="matrix" values="0 0 0 0 0 0 0 0 0 0 0 0 0 0 0 0 0 0 127 0" result="hardAlpha"/>
<feMorphology radius="4.04682" operator="dilate" in="SourceAlpha" result="effect1_dropShadow_596_817"/>
<feOffset/>
<feComposite in2="hardAlpha" operator="out"/>
<feColorMatrix type="matrix" values="0 0 0 0 1 0 0 0 0 1 0 0 0 0 1 0 0 0 0.11 0"/>
<feBlend mode="normal" in2="BackgroundImageFix" result="effect1_dropShadow_596_817"/>
<feBlend mode="normal" in="SourceGraphic" in2="effect1_dropShadow_596_817" result="shape"/>
</filter>
<linearGradient id="paint0_linear_596_817" x1="126" y1="0.34446" x2="541.899" y2="109.399" gradientUnits="userSpaceOnUse">
<stop stop-color="#0084FF"/>
<stop offset="0.438035" stop-color="#FFAB90"/>
<stop offset="1" stop-color="#FD8AC8"/>
</linearGradient>
<linearGradient id="paint1_linear_596_817" x1="87.9599" y1="4.39128" x2="361.777" y2="382.419" gradientUnits="userSpaceOnUse">
<stop stop-color="#2D2E48"/>
<stop offset="1" stop-color="white" stop-opacity="0.06"/>
</linearGradient>
<linearGradient id="paint2_linear_596_817" x1="372.452" y1="78.0434" x2="207.573" y2="396.379" gradientUnits="userSpaceOnUse">
<stop stop-color="#1B1C36"/>
<stop offset="1" stop-color="#00000B"/>
</linearGradient>
<linearGradient id="paint3_linear_596_817" x1="51.1338" y1="320.043" x2="489.082" y2="209.511" gradientUnits="userSpaceOnUse">
<stop offset="0.362307" stop-color="#2C2D47"/>
<stop offset="1" stop-color="white" stop-opacity="0.07"/>
</linearGradient>
</defs>
</svg>
